<svg xmlns="http://www.w3.org/2000/svg" viewBox="0 0 257.40625 142.11621"><defs><style>.cls-1{fill:#f04e25;}</style></defs><title>Asset 1</title><g id="Layer_2" data-name="Layer 2"><g id="Layer_1-2" data-name="Layer 1"><path class="cls-1" d="M-76.44189-801.62451H-70.647v-22.32721h-5.79492Zm29.00927-8.28082h3.25537v3.65972h-3.87353c-3.72852,0-6.36377-2.249-6.36377-6.251,0-4.356,2.95752-6.24665,6.42627-6.24665h8.25586v-4.91839h-9.38086a11.23729,11.23729,0,0,0-11.3501,11.165,11.21978,11.21978,0,0,0,11.3501,11.1709h9.74121V-814.7085h-8.06055Zm21.00489,8.28082h5.79834v-22.32721h-5.79834Zm-135.57227,0h5.80664v-22.32721H-162Zm35.23975-8.68213h-.05274l-10.62939-13.64508h-5.80713v22.32721h5.80713v-13.6734h.0542l10.62793,13.6734h5.80908v-22.32721h-5.80908Zm26.98486-13.64508h-8.23145v22.32721h8.23145A11.22406,11.22406,0,0,0-88.436-812.78961,11.20227,11.20227,0,0,0-99.77539-823.95172Zm-1.11816,17.41308h-1.313v-12.49945h1.36963c3.73242,0,6.36132,2.26166,6.36132,6.24848C-94.47559-808.43408-97.42871-806.53864-100.89355-806.53864Zm93.21044-12.49945h4.79786v17.41358H2.918v-17.41358h4.7959v-4.91363h-15.397Zm-69.26367-36.66314H10.35254v-15.8725H-76.94678ZM64.51514-812.207c0,2.916-.20606,6.07764-3.93311,6.07764-3.74072,0-3.94726-3.16163-3.94726-6.07764v-10.73688H50.84131v11.5459c0,2.87549.11914,5.7168,2.33252,7.879,1.86523,1.84179,4.7998,2.48627,7.4082,2.48627,2.60108,0,5.53906-.64448,7.40088-2.48627,2.21582-2.16223,2.331-5.00354,2.331-7.879v-11.5459H64.51514Zm25.38672-3.03467-1.4751-.45123c-1.01514-.32416-2.58155-.8291-2.58155-2.12836,0-1.249,1.42383-1.86279,2.48047-1.86279A6.1056,6.1056,0,0,1,92.18262-818.21l2.312-4.50141a15.33191,15.33191,0,0,0-6.99317-1.83209c-4.46777,0-7.69677,2.96051-7.69677,7.49268,0,4.31982,2.396,5.26715,6.04052,6.29791,1.23877.36133,3.51807.92529,3.51807,2.55121,0,1.5733-1.44629,2.24908-2.80957,2.24908a7.94056,7.94056,0,0,1-5.15088-2.30468l-2.48144,4.68548a13.80386,13.80386,0,0,0,7.83691,2.53913,9.749,9.749,0,0,0,6.33838-2.10651,7.56445,7.56445,0,0,0,2.30957-6.00629C95.40625-812.76172,93.00977-814.32861,89.90186-815.2417Zm-60.57374-9.45068c-6.42187,0-12.34423,4.73828-12.34423,11.48877,0,7.22308,5.17382,12.31982,12.34423,12.31982,7.16651,0,12.353-5.09674,12.353-12.31982C41.68115-819.9541,35.74951-824.69238,29.32812-824.69238Zm0,18.18017a6.396,6.396,0,0,1-6.30371-6.66021,6.23923,6.23923,0,0,1,6.30371-5.89789,6.25036,6.25036,0,0,1,6.31348,5.89789A6.40557,6.40557,0,0,1,29.32812-806.51221ZM-21.39307-943H-76.94678v55.55371h55.55371Zm-15.87207,39.68109H-61.07373v-23.80853h23.80859Zm31.74463,15.87262H10.35254V-917.604h-15.873Z" transform="translate(162 943)"/></g></g></svg>